<svg xmlns="http://www.w3.org/2000/svg" id="Layer_1" data-name="Layer 1" viewBox="315.05 382.74 1289.9 314.52">
  <path d="M619.64,690.52l-123.81-149.76c-6.87-8.31-19.61-8.31-26.48,0l-123.81,149.76c-11.9,14.39-34.98,2.14-29.73-15.78l82.02-279.65c3.96-13.51,21.61-16.78,30.15-5.58l40.95,53.72c6.88,9.02,20.45,9.02,27.33,0l40.95-53.72c8.54-11.2,26.19-7.93,30.15,5.58l82.02,279.65c5.26,17.92-17.83,30.18-29.73,15.78Z"/>
  <path d="M528.82,648.68h0c1.48.18,1.48,2.32,0,2.5-23.56,2.84-42.13,21.41-44.98,44.97h0c-.18,1.48-2.32,1.48-2.5,0h0c-2.84-23.56-21.41-42.13-44.97-44.98-1.48-.18-1.48-2.32,0-2.5,23.56-2.84,42.13-21.41,44.97-44.97.18-1.48,2.32-1.48,2.5,0,2.84,23.56,21.41,42.13,44.98,44.97Z"/>
  <g>
    <path d="M741.21,444.43l30.87,82.01,30.79-82.01h24.03v107h-18.52v-35.28l1.84-47.18-31.6,82.46h-13.3l-31.53-82.38,1.84,47.11v35.28h-18.52v-107h24.11Z"/>
    <path d="M932.8,524.97l16.46-80.55h18.45l-24.69,107h-17.79l-20.36-78.12-20.8,78.12h-17.86l-24.69-107h18.45l16.61,80.4,20.43-80.4h15.58l20.21,80.55Z"/>
    <path d="M741.21,582.87l30.87,82.01,30.79-82.01h24.03v107h-18.52v-35.28l1.84-47.18-31.6,82.46h-13.3l-31.53-82.38,1.84,47.11v35.28h-18.52v-107h24.11Z"/>
    <path d="M895.32,682.08c-5.24,6.17-12.69,9.26-22.34,9.26-8.62,0-15.15-2.53-19.58-7.57-4.43-5.05-6.65-12.35-6.65-21.9v-51.52h17.86v51.3c0,10.09,4.19,15.14,12.57,15.14s14.53-3.11,17.56-9.33v-57.1h17.86v79.52h-16.83l-.44-7.79Z"/>
    <path d="M949.78,689.87h-17.86v-112.88h17.86v112.88Z"/>
    <path d="M991.6,591.03v19.33h14.03v13.23h-14.03v44.39c0,3.04.6,5.23,1.8,6.58,1.2,1.35,3.34,2.02,6.43,2.02,2.06,0,4.14-.25,6.25-.74v13.82c-4.06,1.13-7.98,1.69-11.76,1.69-13.72,0-20.57-7.57-20.57-22.71v-45.05h-13.08v-13.23h13.08v-19.33h17.86Z"/>
    <path d="M1019.3,589.71c0-2.74.87-5.02,2.61-6.84,1.74-1.81,4.23-2.72,7.46-2.72s5.73.91,7.5,2.72c1.77,1.81,2.65,4.09,2.65,6.84s-.88,4.93-2.65,6.72c-1.76,1.79-4.26,2.68-7.5,2.68s-5.72-.89-7.46-2.68c-1.74-1.79-2.61-4.03-2.61-6.72ZM1038.26,689.87h-17.86v-79.52h17.86v79.52Z"/>
    <path d="M1102.27,668.27c0-3.18-1.31-5.61-3.93-7.27-2.62-1.67-6.97-3.14-13.04-4.41-6.08-1.27-11.15-2.89-15.21-4.85-8.92-4.31-13.38-10.56-13.38-18.74,0-6.86,2.89-12.59,8.67-17.19,5.78-4.6,13.13-6.91,22.05-6.91,9.5,0,17.18,2.35,23.04,7.05,5.85,4.7,8.78,10.8,8.78,18.3h-17.86c0-3.43-1.27-6.29-3.82-8.56-2.55-2.28-5.93-3.42-10.14-3.42-3.92,0-7.12.91-9.59,2.72-2.47,1.81-3.71,4.24-3.71,7.28,0,2.74,1.15,4.88,3.45,6.39,2.3,1.52,6.96,3.05,13.97,4.6,7,1.54,12.5,3.38,16.5,5.51,3.99,2.13,6.95,4.69,8.89,7.68,1.93,2.99,2.9,6.61,2.9,10.88,0,7.15-2.97,12.95-8.89,17.38-5.93,4.43-13.69,6.65-23.3,6.65-6.52,0-12.32-1.18-17.42-3.53-5.1-2.35-9.07-5.59-11.91-9.7-2.84-4.12-4.26-8.55-4.26-13.3h17.35c.24,4.22,1.84,7.46,4.78,9.74s6.84,3.42,11.69,3.42,8.28-.89,10.73-2.68c2.45-1.79,3.67-4.12,3.67-7.02Z"/>
    <path d="M1170.39,691.35c-11.32,0-20.49-3.57-27.52-10.69-7.03-7.13-10.55-16.62-10.55-28.48v-2.2c0-7.94,1.53-15.03,4.59-21.28s7.36-11.11,12.9-14.59c5.54-3.48,11.71-5.22,18.52-5.22,10.83,0,19.19,3.45,25.1,10.36,5.91,6.91,8.86,16.69,8.86,29.32v7.21h-51.96c.54,6.57,2.73,11.76,6.58,15.58,3.85,3.82,8.68,5.73,14.51,5.73,8.18,0,14.84-3.3,19.99-9.92l9.63,9.19c-3.19,4.76-7.44,8.44-12.75,11.06-5.32,2.62-11.28,3.93-17.9,3.93ZM1168.26,623.22c-4.9,0-8.86,1.72-11.87,5.15-3.01,3.43-4.94,8.21-5.77,14.33h34.03v-1.32c-.39-5.98-1.98-10.49-4.78-13.56-2.79-3.06-6.66-4.59-11.61-4.59Z"/>
    <path d="M1257.78,626.67c-2.35-.39-4.78-.59-7.28-.59-8.18,0-13.69,3.14-16.53,9.41v54.38h-17.86v-79.52h17.05l.44,8.89c4.31-6.91,10.29-10.36,17.93-10.36,2.54,0,4.65.34,6.32,1.03l-.07,16.76Z"/>
    <path d="M1298.42,667.24l16.83-56.88h18.45l-27.56,79.52h-15.5l-27.78-79.52h18.52l17.05,56.88Z"/>
    <path d="M1344.86,589.71c0-2.74.87-5.02,2.61-6.84,1.74-1.81,4.23-2.72,7.46-2.72s5.73.91,7.5,2.72c1.77,1.81,2.65,4.09,2.65,6.84s-.88,4.93-2.65,6.72c-1.76,1.79-4.26,2.68-7.5,2.68s-5.72-.89-7.46-2.68c-1.74-1.79-2.61-4.03-2.61-6.72ZM1363.82,689.87h-17.86v-79.52h17.86v79.52Z"/>
    <path d="M1415.93,677.09c4.46,0,8.16-1.3,11.1-3.89,2.94-2.6,4.51-5.81,4.7-9.63h16.83c-.2,4.95-1.74,9.56-4.63,13.85-2.89,4.29-6.81,7.68-11.76,10.18-4.95,2.5-10.29,3.75-16.02,3.75-11.12,0-19.94-3.6-26.46-10.8-6.52-7.2-9.77-17.15-9.77-29.84v-1.84c0-12.1,3.23-21.79,9.7-29.06,6.47-7.28,15.29-10.91,26.46-10.91,9.46,0,17.16,2.76,23.11,8.27,5.95,5.51,9.08,12.75,9.37,21.72h-16.83c-.19-4.56-1.75-8.3-4.66-11.25-2.91-2.94-6.63-4.41-11.13-4.41-5.78,0-10.24,2.1-13.38,6.29-3.13,4.19-4.73,10.55-4.78,19.07v2.87c0,8.62,1.55,15.05,4.67,19.29,3.11,4.23,7.6,6.35,13.48,6.35Z"/>
    <path d="M1497.06,691.35c-11.32,0-20.49-3.57-27.52-10.69-7.03-7.13-10.55-16.62-10.55-28.48v-2.2c0-7.94,1.53-15.03,4.59-21.28,3.06-6.25,7.36-11.11,12.9-14.59,5.54-3.48,11.71-5.22,18.52-5.22,10.83,0,19.19,3.45,25.1,10.36,5.91,6.91,8.86,16.69,8.86,29.32v7.21h-51.96c.54,6.57,2.73,11.76,6.58,15.58,3.85,3.82,8.68,5.73,14.51,5.73,8.18,0,14.84-3.3,19.99-9.92l9.63,9.19c-3.19,4.76-7.44,8.44-12.75,11.06-5.32,2.62-11.28,3.93-17.9,3.93ZM1494.93,623.22c-4.9,0-8.86,1.72-11.87,5.15-3.01,3.43-4.94,8.21-5.77,14.33h34.03v-1.32c-.39-5.98-1.98-10.49-4.78-13.56-2.79-3.06-6.66-4.59-11.61-4.59Z"/>
    <path d="M1587.38,668.27c0-3.18-1.31-5.61-3.93-7.27s-6.97-3.14-13.04-4.41c-6.08-1.27-11.15-2.89-15.21-4.85-8.92-4.31-13.38-10.56-13.38-18.74,0-6.86,2.89-12.59,8.67-17.19,5.78-4.6,13.13-6.91,22.05-6.91,9.5,0,17.18,2.35,23.04,7.05,5.85,4.7,8.78,10.8,8.78,18.3h-17.86c0-3.43-1.27-6.29-3.82-8.56-2.55-2.28-5.93-3.42-10.14-3.42-3.92,0-7.12.91-9.59,2.72-2.47,1.81-3.71,4.24-3.71,7.28,0,2.74,1.15,4.88,3.45,6.39,2.3,1.52,6.96,3.05,13.97,4.6,7,1.54,12.5,3.38,16.5,5.51,3.99,2.13,6.95,4.69,8.89,7.68,1.93,2.99,2.9,6.61,2.9,10.88,0,7.15-2.97,12.95-8.89,17.38-5.93,4.43-13.69,6.65-23.3,6.65-6.52,0-12.32-1.18-17.42-3.53-5.1-2.35-9.07-5.59-11.91-9.7-2.84-4.12-4.26-8.55-4.26-13.3h17.35c.24,4.22,1.84,7.46,4.78,9.74s6.84,3.42,11.69,3.42,8.28-.89,10.73-2.68c2.45-1.79,3.67-4.12,3.67-7.02Z"/>
  </g>
</svg>